HIERARCHY
ROOT SpineBase
{
  OFFSET 0.000000 0.000000 0.000000
  CHANNELS 6 Xposition Yposition Zposition Zrotation Xrotation Yrotation
  JOINT SpineMid
  {
    OFFSET 0.000000 26.692895 0.000000
    CHANNELS 3 Zrotation Xrotation Yrotation
    JOINT SpineShoulder
    {
      OFFSET -0.041839 19.897936 -0.575210
      CHANNELS 3 Zrotation Xrotation Yrotation
      JOINT Neck
      {
        OFFSET -0.031451 6.608661 -0.454728
        CHANNELS 3 Zrotation Xrotation Yrotation
        JOINT Head
        {
          OFFSET -4.107554 10.938910 -0.704584
          CHANNELS 3 Zrotation Xrotation Yrotation
          End Site
          {
            OFFSET 0 0 0
          }
        }
      }
      JOINT ShoulderLeft
      {
        OFFSET -12.947356 -3.431771 5.231338
        CHANNELS 3 Zrotation Xrotation Yrotation
        JOINT ElbowLeft
        {
          OFFSET -0.737007 -19.551216 -22.040431
          CHANNELS 3 Zrotation Xrotation Yrotation
          JOINT WristLeft
          {
            OFFSET 17.198947 -5.302923 -11.763242
            CHANNELS 3 Zrotation Xrotation Yrotation
            JOINT HandLeft
            {
              OFFSET 5.747220 -1.825220 -3.589576
              CHANNELS 3 Zrotation Xrotation Yrotation
              JOINT HandTipLeft
              {
                OFFSET 0.512794 0.563573 -1.011667
                CHANNELS 3 Zrotation Xrotation Yrotation
                End Site
                {
                  OFFSET 0 0 0
                }
              }
              JOINT ThumbLeft
              {
                OFFSET -0.101315 1.066580 -2.628218
                CHANNELS 3 Zrotation Xrotation Yrotation
                End Site
                {
                  OFFSET 0 0 0
                }
              }
            }
          }
        }
      }
      JOINT ShoulderRight
      {
        OFFSET 10.116981 -2.381249 -7.831886
        CHANNELS 3 Zrotation Xrotation Yrotation
        JOINT ElbowRight
        {
          OFFSET 6.884812 -19.719155 -2.520844
          CHANNELS 3 Zrotation Xrotation Yrotation
          JOINT WristRight
          {
            OFFSET -14.821444 -6.472498 -14.471758
            CHANNELS 3 Zrotation Xrotation Yrotation
            JOINT HandRight
            {
              OFFSET -6.023171 2.230244 -1.088814
              CHANNELS 3 Zrotation Xrotation Yrotation
              JOINT HandTipRight
              {
                OFFSET -3.220036 -0.811573 -0.197648
                CHANNELS 3 Zrotation Xrotation Yrotation
                End Site
                {
                  OFFSET 0 0 0
                }
              }
              JOINT ThumbRight
              {
                OFFSET 0.928775 1.125745 -3.311530
                CHANNELS 3 Zrotation Xrotation Yrotation
                End Site
                {
                  OFFSET 0 0 0
                }
              }
            }
          }
        }
      }
    }
  }
  JOINT HipLeft
  {
    OFFSET -5.636684 0.058677 -0.822894
    CHANNELS 3 Zrotation Xrotation Yrotation
    JOINT KneeLeft
    {
      OFFSET 4.372734 -32.335016 3.639467
      CHANNELS 3 Zrotation Xrotation Yrotation
      JOINT AnkleLeft
      {
        OFFSET 6.489307 -33.585947 5.972594
        CHANNELS 3 Zrotation Xrotation Yrotation
        JOINT FootLeft
        {
          OFFSET 0.808864 -6.941972 -2.125353
          CHANNELS 3 Zrotation Xrotation Yrotation
          End Site
          {
            OFFSET 0 0 0
          }
        }
      }
    }
  }
  JOINT HipRight
  {
    OFFSET 5.207471 1.317288 -5.159187
    CHANNELS 3 Zrotation Xrotation Yrotation
    JOINT KneeRight
    {
      OFFSET 6.144744 -32.696444 0.785402
      CHANNELS 3 Zrotation Xrotation Yrotation
      JOINT AnkleRight
      {
        OFFSET 2.749722 -33.338356 6.975562
        CHANNELS 3 Zrotation Xrotation Yrotation
        JOINT FootRight
        {
          OFFSET -3.955205 -4.685268 -5.915633
          CHANNELS 3 Zrotation Xrotation Yrotation
          End Site
          {
            OFFSET 0 0 0
          }
        }
      }
    }
  }
}
MOTION
Frames: 5
Frame Time: 0.033333
28.574981 73.801014 374.471244 0.244361 1.430211 27.883342 -0.045517 -0.199755 -27.874190 0.069147 -0.175972 0.020390 0.541692 -8.592341 -2.712138 0.000000 0.000000 0.000000 -0.976853 -0.978238 0.639040 20.840563 36.818513 30.397613 1.699503 0.086026 1.602121 -59.019992 -14.124609 -62.591036 0.000000 0.000000 0.000000 0.000000 0.000000 0.000000 6.775356 49.486522 13.511028 -52.117541 -46.446692 5.086690 41.371749 -37.346684 -41.467801 -20.907201 3.031642 25.993549 0.000000 0.000000 0.000000 0.000000 0.000000 0.000000 -0.134875 1.062697 -27.623920 -0.472405 -2.217006 -0.428051 7.357209 30.394943 -0.010694 0.000000 0.000000 0.000000 -0.884999 -1.149820 -27.895273 -0.000000 0.000000 0.000000 -4.324820 17.845237 -7.343049 0.000000 0.000000 0.000000
28.580629 73.870069 374.446543 0.275934 1.501411 27.720911 -0.034792 -0.200028 -27.710776 0.075701 -0.172207 0.022865 0.467683 -8.849851 -2.784370 0.000000 0.000000 0.000000 -1.168643 -0.216039 0.761696 21.611308 35.799669 29.331344 0.557859 -0.193229 1.527534 -71.975639 -15.604753 -66.027576 0.000000 0.000000 0.000000 0.000000 0.000000 0.000000 7.830085 50.297578 13.149811 -53.743152 -47.172173 4.347718 39.666545 -34.098649 -41.730962 -26.537850 1.120760 22.946754 0.000000 0.000000 0.000000 0.000000 0.000000 0.000000 -0.200176 0.988791 -27.464162 -0.553832 -2.229278 -0.448628 8.824322 39.128546 -0.322411 0.000000 0.000000 0.000000 -0.942828 -1.200651 -27.734405 -0.000000 0.000000 0.000000 -4.286327 17.875344 -7.407164 0.000000 0.000000 0.000000
28.592366 73.961948 374.438041 0.290890 1.566321 27.555122 -0.028423 -0.196690 -27.544558 0.075029 -0.170214 0.023814 0.428752 -9.023012 -2.825370 0.000000 0.000000 0.000000 -1.396425 0.669461 0.954220 22.912229 34.686460 27.674516 2.050061 0.079781 1.521197 -70.349273 -16.335066 -63.976654 0.000000 0.000000 0.000000 0.000000 0.000000 0.000000 8.507777 51.103524 13.009823 -55.798074 -47.434309 3.766160 39.097897 -31.182312 -40.656636 -33.227023 -0.914367 20.864166 0.000000 0.000000 0.000000 0.000000 0.000000 0.000000 -0.271959 0.895483 -27.305809 -0.551502 -2.271483 -0.459479 -1.704031 35.468149 5.521053 0.000000 0.000000 0.000000 -0.982659 -1.253991 -27.569852 -0.000000 0.000000 0.000000 -4.343574 17.860667 -7.329927 0.000000 0.000000 0.000000
28.596233 74.058938 374.468039 0.275819 1.627983 27.412094 -0.033622 -0.195964 -27.402010 0.066055 -0.174651 0.022414 0.518723 -9.054346 -2.804103 0.000000 0.000000 0.000000 -1.305274 0.888598 0.877001 24.699491 35.478481 26.324564 3.314960 0.296352 1.535381 -57.772260 -15.043545 -58.544081 0.000000 0.000000 0.000000 0.000000 0.000000 0.000000 8.443655 51.769119 13.281653 -56.568523 -47.889806 2.813579 39.356000 -28.101062 -37.931720 -41.397968 -1.456414 16.580934 0.000000 0.000000 0.000000 0.000000 0.000000 0.000000 -0.315747 0.858476 -27.165481 -0.548489 -2.359464 -0.478955 -6.200522 31.461185 7.522437 0.000000 0.000000 0.000000 -0.994555 -1.318113 -27.427454 -0.832199 -0.346722 -0.205237 -3.704105 18.148972 -6.923042 0.000000 0.000000 0.000000
28.594062 74.146071 374.524208 0.237265 1.716010 27.163298 -0.044236 -0.186904 -27.154442 0.050629 -0.180550 0.019212 0.743280 -9.087927 -2.753729 0.000000 0.000000 0.000000 -1.083440 1.012115 0.704036 26.545437 36.425846 24.900674 4.218060 0.424414 1.527143 -44.020645 -12.253958 -52.692182 0.000000 0.000000 0.000000 0.000000 0.000000 0.000000 8.256554 52.343934 13.640015 -57.630603 -47.672758 1.802658 41.214960 -26.744018 -33.938856 -44.322376 -0.282720 10.875603 0.000000 0.000000 0.000000 0.000000 0.000000 0.000000 -0.372825 0.750407 -26.924734 -0.525291 -2.349909 -0.476877 -2.916164 24.120530 4.741035 0.000000 0.000000 0.000000 -0.994734 -1.418335 -27.179165 -1.003544 -0.512667 -0.256702 -3.746987 18.233132 -6.579938 0.000000 0.000000 0.000000
